<mxfile host="app.diagrams.net" agent="Mozilla/5.0 (Windows NT 10.0; Win64; x64) AppleWebKit/537.36 (KHTML, like Gecko) Chrome/130.0.0.0 Safari/537.36" version="24.8.0">
  <diagram name="Page-1" id="Aqv31xwFPgqs0Owytahe">
    <mxGraphModel dx="1687" dy="908" grid="1" gridSize="10" guides="1" tooltips="1" connect="1" arrows="1" fold="1" page="1" pageScale="1" pageWidth="850" pageHeight="1100" math="0" shadow="0">
      <root>
        <mxCell id="0" />
        <mxCell id="1" parent="0" />
        <mxCell id="7HeY-nPYopmR_uiWvRdc-1" value="TV" style="rounded=1;whiteSpace=wrap;html=1;" vertex="1" parent="1">
          <mxGeometry x="540" y="220" width="190" height="90" as="geometry" />
        </mxCell>
        <mxCell id="7HeY-nPYopmR_uiWvRdc-2" value="Raspberry PI" style="rounded=1;whiteSpace=wrap;html=1;verticalAlign=top;" vertex="1" parent="1">
          <mxGeometry x="465" y="400" width="340" height="310" as="geometry" />
        </mxCell>
        <mxCell id="7HeY-nPYopmR_uiWvRdc-5" value="Room certificate" style="rounded=0;whiteSpace=wrap;html=1;" vertex="1" parent="1">
          <mxGeometry x="495" y="620" width="70" height="40" as="geometry" />
        </mxCell>
        <mxCell id="7HeY-nPYopmR_uiWvRdc-6" value="Python app" style="rounded=1;whiteSpace=wrap;html=1;verticalAlign=top;" vertex="1" parent="1">
          <mxGeometry x="605" y="440" width="160" height="240" as="geometry" />
        </mxCell>
        <mxCell id="7HeY-nPYopmR_uiWvRdc-7" value="Startup module&amp;nbsp;&lt;div&gt;(voice activation)&lt;/div&gt;" style="rounded=1;whiteSpace=wrap;html=1;" vertex="1" parent="1">
          <mxGeometry x="625" y="470" width="120" height="90" as="geometry" />
        </mxCell>
        <mxCell id="7HeY-nPYopmR_uiWvRdc-8" value="Notification module" style="rounded=1;whiteSpace=wrap;html=1;" vertex="1" parent="1">
          <mxGeometry x="625" y="600" width="120" height="60" as="geometry" />
        </mxCell>
        <mxCell id="7HeY-nPYopmR_uiWvRdc-9" value="" style="endArrow=classic;html=1;rounded=0;exitX=0;exitY=0.5;exitDx=0;exitDy=0;entryX=1;entryY=0.5;entryDx=0;entryDy=0;" edge="1" parent="1" source="7HeY-nPYopmR_uiWvRdc-8" target="7HeY-nPYopmR_uiWvRdc-5">
          <mxGeometry width="50" height="50" relative="1" as="geometry">
            <mxPoint x="805" y="420" as="sourcePoint" />
            <mxPoint x="855" y="370" as="targetPoint" />
          </mxGeometry>
        </mxCell>
        <mxCell id="7HeY-nPYopmR_uiWvRdc-10" value="" style="endArrow=classic;html=1;rounded=0;exitX=0;exitY=0.5;exitDx=0;exitDy=0;entryX=1;entryY=0;entryDx=0;entryDy=0;" edge="1" parent="1" source="7HeY-nPYopmR_uiWvRdc-7" target="7HeY-nPYopmR_uiWvRdc-5">
          <mxGeometry width="50" height="50" relative="1" as="geometry">
            <mxPoint x="805" y="420" as="sourcePoint" />
            <mxPoint x="855" y="370" as="targetPoint" />
          </mxGeometry>
        </mxCell>
        <mxCell id="7HeY-nPYopmR_uiWvRdc-11" value="Chromium" style="rounded=1;whiteSpace=wrap;html=1;" vertex="1" parent="1">
          <mxGeometry x="485" y="425" width="90" height="60" as="geometry" />
        </mxCell>
        <mxCell id="7HeY-nPYopmR_uiWvRdc-12" value="" style="endArrow=classic;html=1;rounded=0;entryX=1;entryY=0.5;entryDx=0;entryDy=0;exitX=0;exitY=0.5;exitDx=0;exitDy=0;" edge="1" parent="1" source="7HeY-nPYopmR_uiWvRdc-7" target="7HeY-nPYopmR_uiWvRdc-11">
          <mxGeometry width="50" height="50" relative="1" as="geometry">
            <mxPoint x="805" y="420" as="sourcePoint" />
            <mxPoint x="855" y="370" as="targetPoint" />
          </mxGeometry>
        </mxCell>
        <mxCell id="7HeY-nPYopmR_uiWvRdc-13" value="" style="endArrow=classic;html=1;rounded=0;entryX=0.5;entryY=1;entryDx=0;entryDy=0;exitX=0.5;exitY=0;exitDx=0;exitDy=0;" edge="1" parent="1" source="7HeY-nPYopmR_uiWvRdc-8" target="7HeY-nPYopmR_uiWvRdc-7">
          <mxGeometry width="50" height="50" relative="1" as="geometry">
            <mxPoint x="805" y="420" as="sourcePoint" />
            <mxPoint x="855" y="370" as="targetPoint" />
          </mxGeometry>
        </mxCell>
        <mxCell id="7HeY-nPYopmR_uiWvRdc-14" value="Raspberry Speaker&lt;div&gt;(Sound notification)&lt;/div&gt;" style="rounded=1;whiteSpace=wrap;html=1;" vertex="1" parent="1">
          <mxGeometry x="625" y="760" width="120" height="60" as="geometry" />
        </mxCell>
        <mxCell id="7HeY-nPYopmR_uiWvRdc-15" value="" style="endArrow=classic;html=1;rounded=0;exitX=0.5;exitY=1;exitDx=0;exitDy=0;entryX=0.5;entryY=0;entryDx=0;entryDy=0;" edge="1" parent="1" source="7HeY-nPYopmR_uiWvRdc-8" target="7HeY-nPYopmR_uiWvRdc-14">
          <mxGeometry width="50" height="50" relative="1" as="geometry">
            <mxPoint x="395" y="460" as="sourcePoint" />
            <mxPoint x="445" y="410" as="targetPoint" />
          </mxGeometry>
        </mxCell>
        <mxCell id="7HeY-nPYopmR_uiWvRdc-16" value="" style="endArrow=classic;html=1;rounded=0;entryX=0.5;entryY=1;entryDx=0;entryDy=0;exitX=0.5;exitY=0;exitDx=0;exitDy=0;" edge="1" parent="1" source="7HeY-nPYopmR_uiWvRdc-2" target="7HeY-nPYopmR_uiWvRdc-1">
          <mxGeometry width="50" height="50" relative="1" as="geometry">
            <mxPoint x="395" y="460" as="sourcePoint" />
            <mxPoint x="445" y="410" as="targetPoint" />
          </mxGeometry>
        </mxCell>
        <mxCell id="7HeY-nPYopmR_uiWvRdc-17" value="&lt;div&gt;HDMI&lt;/div&gt;" style="edgeLabel;html=1;align=center;verticalAlign=middle;resizable=0;points=[];" vertex="1" connectable="0" parent="7HeY-nPYopmR_uiWvRdc-16">
          <mxGeometry x="-0.087" relative="1" as="geometry">
            <mxPoint as="offset" />
          </mxGeometry>
        </mxCell>
        <mxCell id="7HeY-nPYopmR_uiWvRdc-18" value="Central Server" style="rounded=1;whiteSpace=wrap;html=1;verticalAlign=top;" vertex="1" parent="1">
          <mxGeometry x="45" y="240" width="380" height="670" as="geometry" />
        </mxCell>
        <mxCell id="7HeY-nPYopmR_uiWvRdc-19" value="App DB" style="shape=cylinder3;whiteSpace=wrap;html=1;boundedLbl=1;backgroundOutline=1;size=15;" vertex="1" parent="1">
          <mxGeometry x="65" y="780" width="60" height="80" as="geometry" />
        </mxCell>
        <mxCell id="7HeY-nPYopmR_uiWvRdc-20" value="Quarkus Server" style="rounded=1;whiteSpace=wrap;html=1;verticalAlign=top;" vertex="1" parent="1">
          <mxGeometry x="65" y="280" width="330" height="350" as="geometry" />
        </mxCell>
        <mxCell id="7HeY-nPYopmR_uiWvRdc-21" value="SmallStep&lt;br&gt;CA" style="rounded=1;whiteSpace=wrap;html=1;" vertex="1" parent="1">
          <mxGeometry x="205" y="800" width="190" height="60" as="geometry" />
        </mxCell>
        <mxCell id="7HeY-nPYopmR_uiWvRdc-24" value="" style="endArrow=classic;html=1;rounded=0;exitX=1;exitY=0.5;exitDx=0;exitDy=0;entryX=0.5;entryY=1;entryDx=0;entryDy=0;" edge="1" parent="1" source="7HeY-nPYopmR_uiWvRdc-21" target="7HeY-nPYopmR_uiWvRdc-5">
          <mxGeometry width="50" height="50" relative="1" as="geometry">
            <mxPoint x="395" y="640" as="sourcePoint" />
            <mxPoint x="445" y="590" as="targetPoint" />
          </mxGeometry>
        </mxCell>
        <mxCell id="7HeY-nPYopmR_uiWvRdc-25" value="Emits&amp;nbsp;&lt;div&gt;certificates&lt;/div&gt;" style="edgeLabel;html=1;align=center;verticalAlign=middle;resizable=0;points=[];" vertex="1" connectable="0" parent="7HeY-nPYopmR_uiWvRdc-24">
          <mxGeometry x="-0.0148" y="-3" relative="1" as="geometry">
            <mxPoint as="offset" />
          </mxGeometry>
        </mxCell>
        <mxCell id="7HeY-nPYopmR_uiWvRdc-26" value="Keycloak DB" style="shape=cylinder3;whiteSpace=wrap;html=1;boundedLbl=1;backgroundOutline=1;size=15;" vertex="1" parent="1">
          <mxGeometry x="115" y="670" width="60" height="80" as="geometry" />
        </mxCell>
        <mxCell id="7HeY-nPYopmR_uiWvRdc-27" value="Keycloak&lt;br&gt;(OIDC Provider)" style="rounded=1;whiteSpace=wrap;html=1;" vertex="1" parent="1">
          <mxGeometry x="205" y="670" width="190" height="80" as="geometry" />
        </mxCell>
        <mxCell id="7HeY-nPYopmR_uiWvRdc-28" value="" style="endArrow=classic;startArrow=classic;html=1;rounded=0;exitX=1;exitY=0.5;exitDx=0;exitDy=0;exitPerimeter=0;entryX=0;entryY=0.5;entryDx=0;entryDy=0;" edge="1" parent="1" source="7HeY-nPYopmR_uiWvRdc-26" target="7HeY-nPYopmR_uiWvRdc-27">
          <mxGeometry width="50" height="50" relative="1" as="geometry">
            <mxPoint x="395" y="660" as="sourcePoint" />
            <mxPoint x="445" y="610" as="targetPoint" />
          </mxGeometry>
        </mxCell>
        <mxCell id="7HeY-nPYopmR_uiWvRdc-29" value="" style="endArrow=classic;startArrow=classic;html=1;rounded=0;exitX=0.5;exitY=0;exitDx=0;exitDy=0;exitPerimeter=0;entryX=0.091;entryY=0.983;entryDx=0;entryDy=0;entryPerimeter=0;" edge="1" parent="1" source="7HeY-nPYopmR_uiWvRdc-19" target="7HeY-nPYopmR_uiWvRdc-20">
          <mxGeometry width="50" height="50" relative="1" as="geometry">
            <mxPoint x="395" y="540" as="sourcePoint" />
            <mxPoint x="445" y="490" as="targetPoint" />
          </mxGeometry>
        </mxCell>
        <mxCell id="7HeY-nPYopmR_uiWvRdc-30" value="" style="endArrow=classic;html=1;rounded=0;exitX=0.5;exitY=1;exitDx=0;exitDy=0;entryX=0.5;entryY=0;entryDx=0;entryDy=0;" edge="1" parent="1" source="7HeY-nPYopmR_uiWvRdc-27" target="7HeY-nPYopmR_uiWvRdc-21">
          <mxGeometry width="50" height="50" relative="1" as="geometry">
            <mxPoint x="395" y="660" as="sourcePoint" />
            <mxPoint x="445" y="610" as="targetPoint" />
          </mxGeometry>
        </mxCell>
        <mxCell id="7HeY-nPYopmR_uiWvRdc-31" value="Use CA for MTLS Auth" style="edgeLabel;html=1;align=center;verticalAlign=middle;resizable=0;points=[];" vertex="1" connectable="0" parent="7HeY-nPYopmR_uiWvRdc-30">
          <mxGeometry x="0.04" y="-2" relative="1" as="geometry">
            <mxPoint as="offset" />
          </mxGeometry>
        </mxCell>
        <mxCell id="7HeY-nPYopmR_uiWvRdc-32" value="Notification module" style="rounded=1;whiteSpace=wrap;html=1;" vertex="1" parent="1">
          <mxGeometry x="85" y="545" width="275" height="60" as="geometry" />
        </mxCell>
        <mxCell id="7HeY-nPYopmR_uiWvRdc-33" value="" style="endArrow=classic;startArrow=classic;html=1;rounded=0;entryX=1;entryY=0.5;entryDx=0;entryDy=0;exitX=0;exitY=0.25;exitDx=0;exitDy=0;" edge="1" parent="1" source="7HeY-nPYopmR_uiWvRdc-8" target="7HeY-nPYopmR_uiWvRdc-32">
          <mxGeometry width="50" height="50" relative="1" as="geometry">
            <mxPoint x="395" y="630" as="sourcePoint" />
            <mxPoint x="445" y="580" as="targetPoint" />
          </mxGeometry>
        </mxCell>
        <mxCell id="7HeY-nPYopmR_uiWvRdc-34" value="MTLS WebSocket" style="edgeLabel;html=1;align=center;verticalAlign=middle;resizable=0;points=[];" vertex="1" connectable="0" parent="7HeY-nPYopmR_uiWvRdc-33">
          <mxGeometry x="-0.0032" y="-2" relative="1" as="geometry">
            <mxPoint as="offset" />
          </mxGeometry>
        </mxCell>
        <mxCell id="7HeY-nPYopmR_uiWvRdc-36" value="API" style="rounded=1;whiteSpace=wrap;html=1;" vertex="1" parent="1">
          <mxGeometry x="275" y="460" width="85" height="60" as="geometry" />
        </mxCell>
        <mxCell id="7HeY-nPYopmR_uiWvRdc-37" value="" style="endArrow=classic;html=1;rounded=0;exitX=0;exitY=0.75;exitDx=0;exitDy=0;entryX=1;entryY=0.75;entryDx=0;entryDy=0;" edge="1" parent="1" source="7HeY-nPYopmR_uiWvRdc-7" target="7HeY-nPYopmR_uiWvRdc-36">
          <mxGeometry width="50" height="50" relative="1" as="geometry">
            <mxPoint x="395" y="630" as="sourcePoint" />
            <mxPoint x="445" y="580" as="targetPoint" />
          </mxGeometry>
        </mxCell>
        <mxCell id="7HeY-nPYopmR_uiWvRdc-38" value="Start Call via API" style="edgeLabel;html=1;align=center;verticalAlign=middle;resizable=0;points=[];" vertex="1" connectable="0" parent="7HeY-nPYopmR_uiWvRdc-37">
          <mxGeometry x="-0.1382" y="-2" relative="1" as="geometry">
            <mxPoint as="offset" />
          </mxGeometry>
        </mxCell>
        <mxCell id="7HeY-nPYopmR_uiWvRdc-39" value="" style="endArrow=classic;html=1;rounded=0;entryX=0.926;entryY=1.044;entryDx=0;entryDy=0;exitX=0.75;exitY=0;exitDx=0;exitDy=0;entryPerimeter=0;" edge="1" parent="1" source="7HeY-nPYopmR_uiWvRdc-7" target="7HeY-nPYopmR_uiWvRdc-1">
          <mxGeometry width="50" height="50" relative="1" as="geometry">
            <mxPoint x="395" y="630" as="sourcePoint" />
            <mxPoint x="445" y="580" as="targetPoint" />
          </mxGeometry>
        </mxCell>
        <mxCell id="7HeY-nPYopmR_uiWvRdc-42" value="Start TV&amp;nbsp;&lt;div&gt;(HDMI CEC)&lt;/div&gt;" style="edgeLabel;html=1;align=center;verticalAlign=middle;resizable=0;points=[];" vertex="1" connectable="0" parent="7HeY-nPYopmR_uiWvRdc-39">
          <mxGeometry x="0.5748" y="-1" relative="1" as="geometry">
            <mxPoint as="offset" />
          </mxGeometry>
        </mxCell>
        <mxCell id="7HeY-nPYopmR_uiWvRdc-43" value="React WebApp" style="rounded=1;whiteSpace=wrap;html=1;verticalAlign=top;" vertex="1" parent="1">
          <mxGeometry x="115" y="330" width="240" height="100" as="geometry" />
        </mxCell>
        <mxCell id="7HeY-nPYopmR_uiWvRdc-44" value="Signaling module&lt;br&gt;(Web RTC)" style="rounded=1;whiteSpace=wrap;html=1;" vertex="1" parent="1">
          <mxGeometry x="85" y="460" width="120" height="60" as="geometry" />
        </mxCell>
        <mxCell id="7HeY-nPYopmR_uiWvRdc-45" value="" style="endArrow=classic;startArrow=classic;html=1;rounded=0;exitX=0.5;exitY=0;exitDx=0;exitDy=0;entryX=0.25;entryY=1;entryDx=0;entryDy=0;" edge="1" parent="1" source="7HeY-nPYopmR_uiWvRdc-44" target="7HeY-nPYopmR_uiWvRdc-43">
          <mxGeometry width="50" height="50" relative="1" as="geometry">
            <mxPoint x="395" y="630" as="sourcePoint" />
            <mxPoint x="445" y="580" as="targetPoint" />
          </mxGeometry>
        </mxCell>
        <mxCell id="7HeY-nPYopmR_uiWvRdc-46" value="" style="endArrow=classic;startArrow=classic;html=1;rounded=0;entryX=0.75;entryY=1;entryDx=0;entryDy=0;exitX=0.5;exitY=0;exitDx=0;exitDy=0;" edge="1" parent="1" source="7HeY-nPYopmR_uiWvRdc-36" target="7HeY-nPYopmR_uiWvRdc-43">
          <mxGeometry width="50" height="50" relative="1" as="geometry">
            <mxPoint x="395" y="630" as="sourcePoint" />
            <mxPoint x="445" y="580" as="targetPoint" />
          </mxGeometry>
        </mxCell>
        <mxCell id="7HeY-nPYopmR_uiWvRdc-47" value="" style="endArrow=classic;startArrow=classic;html=1;rounded=0;exitX=0.5;exitY=1;exitDx=0;exitDy=0;" edge="1" parent="1" source="7HeY-nPYopmR_uiWvRdc-43">
          <mxGeometry width="50" height="50" relative="1" as="geometry">
            <mxPoint x="395" y="630" as="sourcePoint" />
            <mxPoint x="235" y="550" as="targetPoint" />
          </mxGeometry>
        </mxCell>
        <mxCell id="7HeY-nPYopmR_uiWvRdc-48" value="" style="endArrow=classic;html=1;rounded=0;entryX=1;entryY=0.5;entryDx=0;entryDy=0;exitX=0;exitY=0.5;exitDx=0;exitDy=0;" edge="1" parent="1" source="7HeY-nPYopmR_uiWvRdc-11" target="7HeY-nPYopmR_uiWvRdc-43">
          <mxGeometry width="50" height="50" relative="1" as="geometry">
            <mxPoint x="395" y="630" as="sourcePoint" />
            <mxPoint x="445" y="580" as="targetPoint" />
          </mxGeometry>
        </mxCell>
        <mxCell id="7HeY-nPYopmR_uiWvRdc-49" value="Displays WebApp&lt;br&gt;(Kiosk mode)&lt;div&gt;(MTLS)&lt;/div&gt;" style="edgeLabel;html=1;align=center;verticalAlign=middle;resizable=0;points=[];" vertex="1" connectable="0" parent="7HeY-nPYopmR_uiWvRdc-48">
          <mxGeometry x="0.0974" y="1" relative="1" as="geometry">
            <mxPoint as="offset" />
          </mxGeometry>
        </mxCell>
        <mxCell id="7HeY-nPYopmR_uiWvRdc-50" value="External User" style="shape=umlActor;verticalLabelPosition=bottom;verticalAlign=top;html=1;outlineConnect=0;" vertex="1" parent="1">
          <mxGeometry x="220" y="10" width="30" height="60" as="geometry" />
        </mxCell>
        <mxCell id="7HeY-nPYopmR_uiWvRdc-54" value="" style="ellipse;shape=cloud;whiteSpace=wrap;html=1;" vertex="1" parent="1">
          <mxGeometry x="142.5" y="110" width="185" height="80" as="geometry" />
        </mxCell>
        <mxCell id="7HeY-nPYopmR_uiWvRdc-57" value="" style="endArrow=classic;html=1;rounded=0;entryX=0.5;entryY=0;entryDx=0;entryDy=0;" edge="1" parent="1" target="7HeY-nPYopmR_uiWvRdc-43">
          <mxGeometry width="50" height="50" relative="1" as="geometry">
            <mxPoint x="240" y="80" as="sourcePoint" />
            <mxPoint x="450" y="340" as="targetPoint" />
            <Array as="points" />
          </mxGeometry>
        </mxCell>
        <mxCell id="7HeY-nPYopmR_uiWvRdc-58" value="Access through Internet&lt;div&gt;(Via User - Password)&lt;/div&gt;" style="edgeLabel;html=1;align=center;verticalAlign=middle;resizable=0;points=[];" vertex="1" connectable="0" parent="7HeY-nPYopmR_uiWvRdc-57">
          <mxGeometry x="-0.0626" relative="1" as="geometry">
            <mxPoint x="-3" y="-47" as="offset" />
          </mxGeometry>
        </mxCell>
        <mxCell id="7HeY-nPYopmR_uiWvRdc-61" value="" style="endArrow=classic;startArrow=classic;html=1;rounded=0;entryX=0.992;entryY=0.93;entryDx=0;entryDy=0;entryPerimeter=0;exitX=1;exitY=0.5;exitDx=0;exitDy=0;" edge="1" parent="1">
          <mxGeometry width="50" height="50" relative="1" as="geometry">
            <mxPoint x="396.92" y="703.5" as="sourcePoint" />
            <mxPoint x="354.99999999999994" y="416.5" as="targetPoint" />
            <Array as="points">
              <mxPoint x="411.92" y="693.5" />
              <mxPoint x="410" y="440" />
            </Array>
          </mxGeometry>
        </mxCell>
        <mxCell id="7HeY-nPYopmR_uiWvRdc-62" value="Redirect&amp;nbsp;&lt;div&gt;to get Token&lt;/div&gt;" style="edgeLabel;html=1;align=center;verticalAlign=middle;resizable=0;points=[];" vertex="1" connectable="0" parent="7HeY-nPYopmR_uiWvRdc-61">
          <mxGeometry x="0.5836" y="-1" relative="1" as="geometry">
            <mxPoint y="36" as="offset" />
          </mxGeometry>
        </mxCell>
      </root>
    </mxGraphModel>
  </diagram>
</mxfile>
